<svg width="42" height="30" viewBox="0 0 42 30" fill="none" xmlns="http://www.w3.org/2000/svg">
<g id="Group">
<path id="Vector" d="M5.75806 0.580566C2.50645 0.580566 0 2.58057 0 6.06444V15.9999C0.270968 17.2257 1.62581 18.129 3.11613 18.129C4.80968 18.129 6.02903 16.9677 6.02903 15.5483V10.516H10.6355V15.4838C10.6355 18.258 6.90968 19.6773 4.2 19.6773C2.64194 19.6773 1.15161 19.2257 0.0677419 18.4515V29.4193H7.38387C9.95806 29.4193 12.9387 27.0967 12.9387 24.129V0.580566H5.75806Z" fill="#1174CE"/>
<path id="Vector_2" d="M0 6.06444V15.9999C0.270968 17.2257 1.62581 18.129 3.11613 18.129C4.80968 18.129 6.02903 16.9677 6.02903 15.5483V10.516H10.6355V15.4838C10.6355 18.258 6.90968 19.6773 4.2 19.6773C2.64194 19.6773 1.15161 19.2257 0.0677419 18.4515V29.4193H7.38387C9.95806 29.4193 12.9387 27.0967 12.9387 24.129V0.580566" fill="#0F549D"/>
<path id="Vector_3" d="M10.5677 10.5161V15.4839C10.5677 18.258 6.84194 19.6774 4.13226 19.6774C2.57419 19.6774 1.08387 19.2258 0 18.4516V29.4193H7.31613C9.89032 29.4193 12.871 27.0968 12.871 24.129" fill="#02375E"/>
<path id="Vector_4" d="M31.3672 18H34.5511C35.364 18 36.1091 17.2903 36.1091 16.5161C36.1091 15.7419 35.364 15.0322 34.5511 15.0322H31.3672V18Z" fill="#146643"/>
<path id="Vector_5" d="M34.9586 0.580566C31.6393 0.580566 29.2006 2.58057 29.2006 5.99992V10.516H37.736C38.9554 10.516 39.9715 11.4838 39.9715 12.6451C39.9715 13.8064 38.9554 14.7741 37.736 14.7741C39.0909 14.7741 40.1747 15.6773 40.1747 16.8386C40.1747 17.9999 39.1586 18.9031 37.736 18.9031H29.1328V29.4193H36.4489C39.0231 29.4193 42.0038 27.0967 42.0038 24.129V0.580566H34.9586Z" fill="#1BCC38"/>
<path id="Vector_6" d="M29.1328 6.06444V10.516H37.6683C38.8877 10.516 39.9038 11.4838 39.9038 12.6451C39.9038 13.8064 38.8877 14.7741 37.6683 14.7741C39.0231 14.7741 40.107 15.6773 40.107 16.8386C40.107 17.9999 39.0909 18.9031 37.6683 18.9031H29.1328V29.4193H36.4489C39.0231 29.4193 42.0038 27.0967 42.0038 24.129V0.580566" fill="#329947"/>
<path id="Vector_7" d="M39.9038 12.645C39.9038 13.8063 38.8877 14.774 37.6683 14.774C39.0231 14.774 40.107 15.6773 40.107 16.8385C40.107 17.9998 39.0909 18.9031 37.6683 18.9031H29.1328V29.4192H36.4489C39.0231 29.4192 42.0038 27.0966 42.0038 24.1289M36.0425 12.9031C36.0425 12.1289 35.2973 11.4192 34.4844 11.4192H31.3683V14.3224H34.5522C35.3651 14.3224 36.0425 13.6773 36.0425 12.9031Z" fill="#146643"/>
<path id="Vector_8" d="M20.2581 0.580566C16.9387 0.580566 14.5 2.58057 14.5 5.99992V11.5483C15.3129 10.9031 16.329 10.4515 17.4129 10.4515H25.1355V11.9999C23.3065 11.6128 21.5452 11.4193 20.6645 11.4193C18.7677 11.4193 17.2097 12.9031 17.2097 14.7096C17.2097 16.516 18.7677 17.9999 20.6645 17.9999C21.5452 17.9999 23.3065 17.8709 25.1355 17.4838V18.9031H17.4129C16.329 18.9031 15.2452 18.516 14.5 17.8064V29.4193H21.8161C24.3903 29.4193 27.371 27.0967 27.371 24.129V0.580566H20.2581Z" fill="#E20E37"/>
<path id="Vector_9" d="M14.5 6.06444V11.6128C15.3129 10.9677 16.329 10.516 17.4129 10.516H25.1355V12.0644C23.3065 11.6773 21.5452 11.4838 20.6645 11.4838C18.7677 11.4838 17.2097 12.9677 17.2097 14.7741C17.2097 16.5806 18.7677 18.0644 20.6645 18.0644C21.5452 18.0644 23.3065 17.9354 25.1355 17.5483V18.9031H17.4129C16.329 18.9031 15.2452 18.516 14.5 17.8064V29.4193H21.8161C24.3903 29.4193 27.371 27.0967 27.371 24.129V0.580566" fill="#B41F36"/>
<path id="Vector_10" d="M25.1355 10.5161V12.0645C23.3065 11.6774 21.5452 11.4839 20.6645 11.4839C18.7677 11.4839 17.2097 12.9677 17.2097 14.7742C17.2097 16.5806 18.7677 18.0645 20.6645 18.0645C21.5452 18.0645 23.3065 17.9355 25.1355 17.5484V18.9032H17.4129C16.329 18.9032 15.2452 18.5161 14.5 17.8064V29.4193H21.8161C24.3903 29.4193 27.371 27.0968 27.371 24.129" fill="#720A1E"/>
</g>
</svg>
