<svg width="42" height="24" viewBox="0 0 42 24" fill="none" xmlns="http://www.w3.org/2000/svg">
<g id="Group">
<path id="Vector" d="M41.6734 12C41.6734 18.5 36.1609 23.8125 29.2703 23.8125C22.4453 23.8125 16.8672 18.5 16.8672 12C16.8672 5.5 22.3797 0.1875 29.2047 0.1875C36.1609 0.1875 41.6734 5.5 41.6734 12Z" fill="#FFB600"/>
<path id="Vector_2" d="M29.2703 0.1875C36.0953 0.1875 41.6734 5.5 41.6734 12C41.6734 18.5 36.1609 23.8125 29.2703 23.8125C22.4453 23.8125 16.8672 18.5 16.8672 12" fill="#F7981D"/>
<path id="Vector_3" d="M29.2656 0.1875C36.0906 0.1875 41.6688 5.5 41.6688 12C41.6688 18.5 36.1563 23.8125 29.2656 23.8125" fill="#FF8500"/>
<path id="Vector_4" d="M12.6 0.1875C5.84063 0.25 0.328125 5.5 0.328125 12C0.328125 18.5 5.84062 23.8125 12.7312 23.8125C15.9469 23.8125 18.8344 22.625 21.0656 20.75C21.525 20.375 21.9188 19.9375 22.3125 19.5H19.7531C19.425 19.125 19.0969 18.6875 18.8344 18.3125H23.2313C23.4938 17.9375 23.7563 17.5 23.9531 17.0625H18.1125C17.9156 16.6875 17.7188 16.25 17.5875 15.8125H24.4125C24.8062 14.625 25.0688 13.375 25.0688 12.0625C25.0688 11.1875 24.9375 10.375 24.8062 9.5625H17.1938C17.2594 9.125 17.3906 8.75 17.5219 8.3125H24.3469C24.2156 7.875 24.0187 7.4375 23.8219 7.0625H18.0469C18.2437 6.625 18.5063 6.25 18.7688 5.8125H23.1656C22.9031 5.375 22.575 4.9375 22.1812 4.5625H19.7531C20.1469 4.125 20.5406 3.75 21 3.375C18.8344 1.4375 15.8812 0.3125 12.6656 0.3125C12.6656 0.1875 12.6656 0.1875 12.6 0.1875Z" fill="#FF5050"/>
<path id="Vector_5" d="M0.328125 12C0.328125 18.5 5.84062 23.8125 12.7312 23.8125C15.9469 23.8125 18.8344 22.625 21.0656 20.75C21.525 20.375 21.9188 19.9375 22.3125 19.5H19.7531C19.425 19.125 19.0969 18.6875 18.8344 18.3125H23.2313C23.4938 17.9375 23.7563 17.5 23.9531 17.0625H18.1125C17.9156 16.6875 17.7188 16.25 17.5875 15.8125H24.4125C24.8062 14.625 25.0688 13.375 25.0688 12.0625C25.0688 11.1875 24.9375 10.375 24.8062 9.5625H17.1938C17.2594 9.125 17.3906 8.75 17.5219 8.3125H24.3469C24.2156 7.875 24.0187 7.4375 23.8219 7.0625H18.0469C18.2437 6.625 18.5063 6.25 18.7688 5.8125H23.1656C22.9031 5.375 22.575 4.9375 22.1812 4.5625H19.7531C20.1469 4.125 20.5406 3.75 21 3.375C18.8344 1.4375 15.8812 0.3125 12.6656 0.3125H12.6" fill="#E52836"/>
<path id="Vector_6" d="M12.7328 23.8125C15.9484 23.8125 18.8359 22.625 21.0672 20.75C21.5266 20.375 21.9203 19.9375 22.3141 19.5H19.7547C19.4266 19.125 19.0984 18.6875 18.8359 18.3125H23.2328C23.4953 17.9375 23.7578 17.5 23.9547 17.0625H18.1141C17.9172 16.6875 17.7203 16.25 17.5891 15.8125H24.4141C24.8078 14.625 25.0703 13.375 25.0703 12.0625C25.0703 11.1875 24.9391 10.375 24.8078 9.5625H17.1953C17.2609 9.125 17.3922 8.75 17.5234 8.3125H24.3484C24.2172 7.875 24.0203 7.4375 23.8234 7.0625H18.0484C18.2453 6.625 18.5078 6.25 18.7703 5.8125H23.1672C22.9047 5.375 22.5766 4.9375 22.1828 4.5625H19.7547C20.1484 4.125 20.5422 3.75 21.0016 3.375C18.8359 1.4375 15.8828 0.3125 12.6672 0.3125H12.6016" fill="#CB2026"/>
<path id="Vector_7" d="M17.1266 15L17.3234 13.9375C17.2578 13.9375 17.1266 14 16.9953 14C16.5359 14 16.4703 13.75 16.5359 13.625L16.9297 11.4375H17.6516L17.8484 10.25H17.1922L17.3234 9.5H16.0109C16.0109 9.5 15.2234 13.625 15.2234 14.125C15.2234 14.875 15.6828 15.1875 16.2734 15.1875C16.6672 15.1875 16.9953 15.0625 17.1266 15ZM17.5859 13C17.5859 14.75 18.8328 15.1875 19.8828 15.1875C20.8672 15.1875 21.2609 15 21.2609 15L21.5234 13.8125C21.5234 13.8125 20.8016 14.125 20.1453 14.125C18.7016 14.125 18.9641 13.125 18.9641 13.125H21.6547C21.6547 13.125 21.8516 12.3125 21.8516 12C21.8516 11.1875 21.3922 10.1875 19.9484 10.1875C18.5703 10.0625 17.5859 11.4375 17.5859 13ZM19.8828 11.1875C20.6047 11.1875 20.4734 12 20.4734 12.0625H19.0297C19.0297 12 19.1609 11.1875 19.8828 11.1875ZM28.2172 15L28.4797 13.625C28.4797 13.625 27.8234 13.9375 27.3641 13.9375C26.4453 13.9375 26.0516 13.25 26.0516 12.5C26.0516 11 26.8391 10.1875 27.7578 10.1875C28.4141 10.1875 28.9391 10.5625 28.9391 10.5625L29.1359 9.25C29.1359 9.25 28.3484 8.9375 27.6266 8.9375C26.1172 8.9375 24.6078 10.1875 24.6078 12.5625C24.6078 14.125 25.3953 15.1875 26.9703 15.1875C27.4953 15.1875 28.2172 15 28.2172 15ZM9.90781 10.0625C8.98906 10.0625 8.33281 10.3125 8.33281 10.3125L8.13594 11.375C8.13594 11.375 8.72656 11.125 9.57969 11.125C10.0391 11.125 10.4328 11.1875 10.4328 11.5625C10.4328 11.8125 10.3672 11.875 10.3672 11.875H9.77656C8.66094 11.875 7.41406 12.3125 7.41406 13.75C7.41406 14.875 8.20156 15.125 8.66094 15.125C9.57969 15.125 9.97344 14.5625 10.0391 14.5625L9.97344 15.0625H11.1547L11.6797 11.625C11.6797 10.125 10.3672 10.0625 9.90781 10.0625ZM10.1703 12.875C10.1703 13.0625 10.0391 14.0625 9.25156 14.0625C8.85781 14.0625 8.72656 13.75 8.72656 13.5625C8.72656 13.25 8.92344 12.8125 9.90781 12.8125C10.1047 12.875 10.1703 12.875 10.1703 12.875ZM12.9266 15.125C13.2547 15.125 14.8953 15.1875 14.8953 13.5C14.8953 11.9375 13.3203 12.25 13.3203 11.625C13.3203 11.3125 13.5828 11.1875 14.0422 11.1875C14.2391 11.1875 14.9609 11.25 14.9609 11.25L15.1578 10.125C15.1578 10.125 14.6984 10 13.9109 10C12.9266 10 11.9422 10.375 11.9422 11.625C11.9422 13.0625 13.5828 12.9375 13.5828 13.5C13.5828 13.875 13.1234 13.9375 12.7953 13.9375C12.2047 13.9375 11.6141 13.75 11.6141 13.75L11.4172 14.875C11.4828 15 11.8109 15.125 12.9266 15.125ZM39.1109 9.0625L38.8484 10.75C38.8484 10.75 38.3234 10.125 37.6016 10.125C36.4203 10.125 35.3703 11.5 35.3703 13.125C35.3703 14.125 35.8953 15.1875 37.0109 15.1875C37.7984 15.1875 38.2578 14.6875 38.2578 14.6875L38.1922 15.125H39.5047L40.4891 9.125L39.1109 9.0625ZM38.5203 12.375C38.5203 13.0625 38.1922 13.9375 37.4703 13.9375C37.0109 13.9375 36.7484 13.5625 36.7484 12.9375C36.7484 11.9375 37.2078 11.3125 37.7984 11.3125C38.2578 11.3125 38.5203 11.625 38.5203 12.375ZM2.75469 15.0625L3.54219 10.5625L3.67344 15.0625H4.59219L6.29844 10.5625L5.57656 15.0625H6.95469L8.00469 9.0625H5.83906L4.52656 12.75L4.46094 9.0625H2.55781L1.50781 15.0625H2.75469ZM23.0984 15.0625C23.4922 13 23.5578 11.3125 24.4766 11.625C24.6078 10.8125 24.8047 10.5 24.9359 10.1875H24.6734C24.0828 10.1875 23.6234 10.9375 23.6234 10.9375L23.7547 10.25H22.5078L21.6547 15.125H23.0984V15.0625ZM31.2359 10.0625C30.3172 10.0625 29.6609 10.3125 29.6609 10.3125L29.4641 11.375C29.4641 11.375 30.0547 11.125 30.9078 11.125C31.3672 11.125 31.7609 11.1875 31.7609 11.5625C31.7609 11.8125 31.6953 11.875 31.6953 11.875H31.1047C29.9891 11.875 28.7422 12.3125 28.7422 13.75C28.7422 14.875 29.5297 15.125 29.9891 15.125C30.9078 15.125 31.3016 14.5625 31.3672 14.5625L31.3016 15.0625H32.4828L33.0078 11.625C33.0734 10.125 31.6953 10.0625 31.2359 10.0625ZM31.5641 12.875C31.5641 13.0625 31.4328 14.0625 30.6453 14.0625C30.2516 14.0625 30.1203 13.75 30.1203 13.5625C30.1203 13.25 30.3172 12.8125 31.3016 12.8125C31.4984 12.875 31.4984 12.875 31.5641 12.875ZM34.1234 15.0625C34.5172 13 34.5828 11.3125 35.5016 11.625C35.6328 10.8125 35.8297 10.5 35.9609 10.1875H35.6984C35.1078 10.1875 34.6484 10.9375 34.6484 10.9375L34.7797 10.25H33.5328L32.6797 15.125H34.1234V15.0625Z" fill="white"/>
<path id="Vector_8" d="M15.0922 14.125C15.0922 14.875 15.5516 15.1875 16.1422 15.1875C16.6016 15.1875 16.9953 15.0625 17.1266 15L17.3234 13.9375C17.2578 13.9375 17.1266 14 16.9953 14C16.5359 14 16.4703 13.75 16.5359 13.625L16.9297 11.4375H17.6516L17.8484 10.25H17.1922L17.3234 9.5M18.2422 13C18.2422 14.75 18.8328 15.1875 19.8828 15.1875C20.8672 15.1875 21.2609 15 21.2609 15L21.5234 13.8125C21.5234 13.8125 20.8016 14.125 20.1453 14.125C18.7016 14.125 18.9641 13.125 18.9641 13.125H21.6547C21.6547 13.125 21.8516 12.3125 21.8516 12C21.8516 11.1875 21.3922 10.1875 19.9484 10.1875C18.5703 10.0625 18.2422 11.4375 18.2422 13ZM19.8828 11.1875C20.6047 11.1875 20.7359 12 20.7359 12.0625H19.0297C19.0297 12 19.1609 11.1875 19.8828 11.1875ZM28.2172 15L28.4797 13.625C28.4797 13.625 27.8234 13.9375 27.3641 13.9375C26.4453 13.9375 26.0516 13.25 26.0516 12.5C26.0516 11 26.8391 10.1875 27.7578 10.1875C28.4141 10.1875 28.9391 10.5625 28.9391 10.5625L29.1359 9.25C29.1359 9.25 28.3484 8.9375 27.6266 8.9375C26.1172 8.9375 25.2641 10.1875 25.2641 12.5625C25.2641 14.125 25.3953 15.1875 26.9703 15.1875C27.4953 15.1875 28.2172 15 28.2172 15ZM8.13594 11.4375C8.13594 11.4375 8.72656 11.1875 9.57969 11.1875C10.0391 11.1875 10.4328 11.25 10.4328 11.625C10.4328 11.875 10.3672 11.9375 10.3672 11.9375H9.77656C8.66094 11.9375 7.41406 12.375 7.41406 13.8125C7.41406 14.9375 8.20156 15.1875 8.66094 15.1875C9.57969 15.1875 9.97344 14.625 10.0391 14.625L9.97344 15.125H11.1547L11.6797 11.6875C11.6797 10.25 10.3672 10.1875 9.84219 10.1875M10.8266 12.875C10.8266 13.0625 10.0391 14.0625 9.25156 14.0625C8.85781 14.0625 8.72656 13.75 8.72656 13.5625C8.72656 13.25 8.92344 12.8125 9.90781 12.8125C10.1047 12.875 10.8266 12.875 10.8266 12.875ZM11.4828 15C11.4828 15 11.8766 15.125 12.9922 15.125C13.3203 15.125 14.9609 15.1875 14.9609 13.5C14.9609 11.9375 13.3859 12.25 13.3859 11.625C13.3859 11.3125 13.6484 11.1875 14.1078 11.1875C14.3047 11.1875 15.0266 11.25 15.0266 11.25L15.2234 10.125C15.2234 10.125 14.7641 10 13.9766 10C12.9922 10 12.6641 10.375 12.6641 11.625C12.6641 13.0625 13.6484 12.9375 13.6484 13.5C13.6484 13.875 13.1891 13.9375 12.8609 13.9375M38.8484 10.75C38.8484 10.75 38.3234 10.125 37.6016 10.125C36.4203 10.125 36.0266 11.5 36.0266 13.125C36.0266 14.125 35.8953 15.1875 37.0109 15.1875C37.7984 15.1875 38.2578 14.6875 38.2578 14.6875L38.1922 15.125H39.5047L40.4891 9.125M38.7828 12.375C38.7828 13.0625 38.1922 13.9375 37.4703 13.9375C37.0109 13.9375 36.7484 13.5625 36.7484 12.9375C36.7484 11.9375 37.2078 11.3125 37.7984 11.3125C38.2578 11.3125 38.7828 11.625 38.7828 12.375ZM2.75469 15.0625L3.54219 10.5625L3.67344 15.0625H4.59219L6.29844 10.5625L5.57656 15.0625H6.95469L8.00469 9.0625H6.36406L4.52656 12.75L4.46094 9.0625H3.73906L1.50781 15.0625H2.75469ZM21.7203 15.0625H23.0984C23.4922 13 23.5578 11.3125 24.4766 11.625C24.6078 10.8125 24.8047 10.5 24.9359 10.1875H24.6734C24.0828 10.1875 23.6234 10.9375 23.6234 10.9375L23.7547 10.25M29.4641 11.4375C29.4641 11.4375 30.0547 11.1875 30.9078 11.1875C31.3672 11.1875 31.7609 11.25 31.7609 11.625C31.7609 11.875 31.6953 11.9375 31.6953 11.9375H31.1047C29.9891 11.9375 28.7422 12.375 28.7422 13.8125C28.7422 14.9375 29.5297 15.1875 29.9891 15.1875C30.9078 15.1875 31.3016 14.625 31.3672 14.625L31.3016 15.125H32.4828L33.0078 11.6875C33.0078 10.25 31.6953 10.1875 31.1703 10.1875M32.1547 12.875C32.1547 13.0625 31.3672 14.0625 30.5797 14.0625C30.1859 14.0625 30.0547 13.75 30.0547 13.5625C30.0547 13.25 30.2516 12.8125 31.2359 12.8125C31.4984 12.875 32.1547 12.875 32.1547 12.875ZM32.7453 15.0625H34.1234C34.5172 13 34.5828 11.3125 35.5016 11.625C35.6328 10.8125 35.8297 10.5 35.9609 10.1875H35.6984C35.1078 10.1875 34.6484 10.9375 34.6484 10.9375L34.7797 10.25" fill="#DCE5E5"/>
</g>
</svg>
