<svg width="41" height="14" viewBox="0 0 41 14" fill="none" xmlns="http://www.w3.org/2000/svg">
<g id="Group">
<path id="Vector" d="M3.51562 3.47626H4.94737L4.2315 1.69849L3.51562 3.47626Z" fill="#2FABF7"/>
<path id="Vector_2" d="M21.2832 1.95241C21.153 1.88892 20.9578 1.88892 20.7625 1.88892H19.4609V2.90479H20.7625C20.9578 2.90479 21.153 2.90479 21.2832 2.8413C21.4133 2.7778 21.4784 2.58733 21.4784 2.39685C21.5435 2.14288 21.4133 2.0159 21.2832 1.95241Z" fill="#228FE0"/>
<path id="Vector_3" d="M35.2079 0.0476074V0.809513L34.8175 0.0476074H31.7587V0.809513L31.3683 0.0476074H27.2032C26.4873 0.0476074 25.9016 0.174592 25.381 0.42856V0.0476074H22.4524V0.42856C22.127 0.174592 21.7365 0.0476074 21.2159 0.0476074H10.7381L10.0222 1.63491L9.30635 0.0476074H5.9873V0.809513L5.59683 0.0476074H2.79841L1.49683 3.03173L0 6.33332H3.31905L3.70952 5.31745H4.62063L5.01111 6.33332H8.78571V5.57142L9.11111 6.33332H10.9984L11.3238 5.57142V6.33332H20.3698V4.68253H20.5C20.6302 4.68253 20.6302 4.68253 20.6302 4.873V6.26983H25.3159V5.88888C25.7063 6.07935 26.2921 6.26983 27.073 6.26983H29.0254L29.4159 5.25396H30.327L30.7175 6.26983H34.4921V5.31745L35.0778 6.26983H38.1365V0.0476074H35.2079ZM13.2111 5.38094H12.1048V1.88888L10.5429 5.38094H9.56667L8.00476 1.88888V5.38094H5.79206L5.33651 4.42856H3.12381L2.73333 5.44443H1.49683L3.44921 0.936497H5.07619L6.89841 5.19046V0.936497H8.65555L10.0873 3.98412L11.3889 0.936497H13.2111V5.38094ZM17.6365 1.88888H15.0984V2.71427H17.5714V3.60316H15.0984V4.49205H17.6365V5.44443H13.9921V0.936497H17.6365V1.88888ZM22.5175 3.73015C22.6476 3.98412 22.7127 4.17459 22.7127 4.55554V5.44443H21.6063V4.873C21.6063 4.61904 21.6063 4.23808 21.4111 3.98412C21.2159 3.79364 21.0206 3.79364 20.6302 3.79364H19.4587V5.44443H18.3524V0.936497H20.8254C21.4111 0.936497 21.8016 0.936497 22.127 1.12697C22.4524 1.31745 22.6476 1.63491 22.6476 2.14285C22.6476 2.84126 22.1921 3.22221 21.8667 3.3492C22.1921 3.41269 22.3873 3.60316 22.5175 3.73015ZM24.4698 5.38094H23.3635V0.873005H24.4698V5.38094ZM37.2905 5.38094H35.7286L33.646 2.01586V5.38094H31.4333L31.0429 4.42856H28.7651L28.3746 5.44443H27.1381C26.6175 5.44443 25.9667 5.31745 25.5762 4.9365C25.1857 4.55554 24.9905 4.04761 24.9905 3.22221C24.9905 2.58729 25.1206 1.95237 25.5762 1.44443C25.9016 1.06348 26.4873 0.936497 27.2032 0.936497H28.2444V1.88888H27.2032C26.8127 1.88888 26.6175 1.95237 26.3571 2.14285C26.1619 2.33332 26.0317 2.71428 26.0317 3.15872C26.0317 3.66666 26.0968 3.98412 26.3571 4.23808C26.5524 4.42856 26.8127 4.49205 27.1381 4.49205H27.5937L29.0905 0.999988H30.7175L32.5397 5.25396V0.999988H34.1667L36.054 4.1111V0.999988H37.1603V5.38094H37.2905Z" fill="#0571C1"/>
<path id="Vector_4" d="M29.154 3.47626H30.6508L29.9349 1.69849L29.154 3.47626ZM18.0905 12.6191V9.00007L16.3984 10.7779L18.0905 12.6191Z" fill="#228FE0"/>
<path id="Vector_5" d="M11.125 9.44434V10.2697H13.5329V11.1586H11.125V12.111H13.7933L15.0298 10.7777L13.8583 9.44434H11.125Z" fill="#2FABF7"/>
<path id="Vector_6" d="M20.562 9.44434H19.1953V10.5872H20.6271C21.0175 10.5872 21.2779 10.3967 21.2779 10.0158C21.2128 9.63481 20.9525 9.44434 20.562 9.44434Z" fill="#228FE0"/>
<path id="Vector_7" d="M40.6754 10.5239V7.66675H37.9421C37.3564 7.66675 36.9008 7.79373 36.5754 8.0477V7.66675H33.5818C33.1262 7.66675 32.5405 7.79373 32.2802 8.0477V7.66675H27.0088V8.0477C26.6183 7.73024 25.9024 7.66675 25.577 7.66675H22.0627V8.0477C21.7374 7.73024 20.9564 7.66675 20.5659 7.66675H16.6612L15.7501 8.61913L14.904 7.66675H9.04688V13.889H14.7739L15.685 12.9366L16.531 13.889H20.0453V12.4287H20.5008C20.9564 12.4287 21.5421 12.4287 21.9977 12.2382V13.9525H24.9262V12.3017H25.0564C25.2516 12.3017 25.2516 12.3017 25.2516 12.4921V13.9525H34.1024C34.6881 13.9525 35.2739 13.8255 35.5993 13.5715V13.9525H38.3977C38.9834 13.9525 39.5691 13.889 39.9596 13.635C40.6104 13.2541 41.0008 12.5556 41.0008 11.7302C41.0008 11.2858 40.8707 10.8414 40.6754 10.5239ZM20.5008 11.5398H19.1993V13.0636H17.1167L15.8151 11.6033L14.4485 13.0636H10.1532V8.55564H14.5135L15.8151 10.016L17.1818 8.55564H20.631C21.477 8.55564 22.4532 8.80961 22.4532 10.016C22.3881 11.2858 21.477 11.5398 20.5008 11.5398ZM27.0088 11.2858C27.1389 11.4763 27.204 11.7302 27.204 12.1112V13.0001H26.0977V12.4287C26.0977 12.1747 26.0977 11.7302 25.9024 11.5398C25.7723 11.3493 25.512 11.3493 25.1215 11.3493H23.95V13.0001H22.8437V8.49214H25.3167C25.8374 8.49214 26.2929 8.49215 26.6183 8.68262C26.9437 8.8731 27.204 9.19056 27.204 9.69849C27.204 10.3969 26.7485 10.7779 26.4231 10.9048C26.7485 11.0318 26.9437 11.1588 27.0088 11.2858ZM31.4993 9.44453H28.9612V10.2699H31.4342V11.1588H28.9612V12.0477H31.4993V13.0001H27.8548V8.49214H31.4993V9.44453ZM34.2326 13.0001H32.1501V12.0477H34.2326C34.4278 12.0477 34.558 12.0477 34.6881 11.9207C34.7532 11.8572 34.8183 11.7302 34.8183 11.6033C34.8183 11.4763 34.7532 11.3493 34.6881 11.2858C34.6231 11.2223 34.4929 11.1588 34.2977 11.1588C33.2564 11.0953 32.0199 11.1588 32.0199 9.76199C32.0199 9.12707 32.4104 8.42865 33.5818 8.42865H35.7294V9.50802H33.712C33.5167 9.50802 33.3866 9.50802 33.2564 9.57151C33.1262 9.635 33.1262 9.76199 33.1262 9.88897C33.1262 10.0794 33.2564 10.1429 33.3866 10.2064C33.5167 10.2699 33.6469 10.2699 33.777 10.2699H34.3627C34.9485 10.2699 35.3389 10.3969 35.5993 10.6509C35.7945 10.8414 35.9247 11.1588 35.9247 11.6033C35.9247 12.5556 35.3389 13.0001 34.2326 13.0001ZM39.8294 12.5556C39.5691 12.8096 39.1135 13.0001 38.4627 13.0001H36.3802V12.0477H38.4627C38.658 12.0477 38.7881 12.0477 38.9183 11.9207C38.9834 11.8572 39.0485 11.7302 39.0485 11.6033C39.0485 11.4763 38.9834 11.3493 38.9183 11.2858C38.8532 11.2223 38.7231 11.1588 38.5278 11.1588C37.4866 11.0953 36.2501 11.1588 36.2501 9.76199C36.2501 9.12707 36.6405 8.42865 37.812 8.42865H39.9596V9.50802H38.0072C37.812 9.50802 37.6818 9.50802 37.5516 9.57151C37.4215 9.635 37.4215 9.76199 37.4215 9.88897C37.4215 10.0794 37.4866 10.1429 37.6818 10.2064C37.812 10.2699 37.9421 10.2699 38.0723 10.2699H38.658C39.2437 10.2699 39.6342 10.3969 39.8945 10.6509C39.9596 10.6509 39.9596 10.7144 39.9596 10.7144C40.1548 10.9683 40.2199 11.2858 40.2199 11.6033C40.2199 11.9842 40.0897 12.3017 39.8294 12.5556Z" fill="#0571C1"/>
<path id="Vector_8" d="M25.8349 9.5715C25.7048 9.50801 25.5096 9.50801 25.3143 9.50801H24.0127V10.5239H25.3143C25.5096 10.5239 25.7048 10.5239 25.8349 10.4604C25.9651 10.3969 26.0302 10.2064 26.0302 10.0159C26.0953 9.76198 25.9651 9.63499 25.8349 9.5715ZM21.2794 1.95245C21.1492 1.88896 20.954 1.88896 20.7588 1.88896H19.4572V2.90484H20.7588C20.954 2.90484 21.1492 2.90484 21.2794 2.84134C21.4095 2.77785 21.4746 2.58738 21.4746 2.3969C21.5397 2.14293 21.4095 2.01595 21.2794 1.95245ZM29.154 3.47626H30.6508L29.9349 1.69849L29.154 3.47626ZM18.0905 12.6191V9.00007L16.3984 10.7779L18.0905 12.6191ZM20.5635 9.44452H19.1969V10.5874H20.6286C21.0191 10.5874 21.2794 10.3969 21.2794 10.0159C21.2143 9.63499 20.954 9.44452 20.5635 9.44452Z" fill="#228FE0"/>
<path id="Vector_9" d="M25.8378 9.5713C25.7077 9.50781 25.5125 9.50781 25.3172 9.50781H24.0156V10.5237H25.3172C25.5125 10.5237 25.7077 10.5237 25.8378 10.4602C25.968 10.3967 26.0331 10.2062 26.0331 10.0157C26.0982 9.76178 25.968 9.6348 25.8378 9.5713Z" fill="#228FE0"/>
<path id="Vector_10" d="M20.1095 12.873L19.1984 11.9206V13H17.0508L15.7492 11.5397L14.3175 13H10.0222V8.55554H14.3825L15.7492 10.0159L16.4 9.25396L14.773 7.66666H9.04603V13.8889H14.773L15.7492 12.9365L16.5952 13.8889H20.1095V12.873ZM13.3413 6.26983L12.4952 5.38094H12.1048V4.99999L11.1286 4.04761L10.4778 5.38094H9.56667L8.00476 1.88888V5.38094H5.79206L5.33651 4.42856H3.12381L2.66825 5.38094H1.49683L3.44921 0.936497H5.07619L6.89841 5.19046V0.936497H7.8746L6.96349 0.0476074H5.9873V0.809513L5.66191 0.0476074H2.79841L1.49683 3.03173L0 6.26983H3.38413L3.7746 5.31745H4.68571L5.14127 6.26983H8.78572V5.50793L9.11111 6.26983H10.9984L11.3238 5.50793V6.26983H13.3413Z" fill="#2FABF7"/>
<path id="Vector_11" d="M10.346 3.34913L9.30469 2.33325L10.0856 3.98405L10.346 3.34913Z" fill="#2FABF7"/>
<path id="Vector_12" d="M39.9589 13.5713C40.5446 13.1904 40.9351 12.5554 41.0002 11.857L40.0891 10.9681C40.1542 11.1586 40.2192 11.3491 40.2192 11.6031C40.2192 11.984 40.0891 12.3015 39.8288 12.5554C39.5685 12.8094 39.1129 12.9999 38.4621 12.9999H36.3796V12.0475H38.4621C38.6573 12.0475 38.7875 12.0475 38.9177 11.9205C38.9827 11.857 39.0478 11.73 39.0478 11.6031C39.0478 11.4761 38.9827 11.3491 38.9177 11.2856C38.8526 11.2221 38.7224 11.1586 38.5272 11.1586C37.4859 11.0951 36.2494 11.1586 36.2494 9.76179C36.2494 9.12687 36.6399 8.55544 37.6161 8.42846L36.9002 7.73004C36.77 7.79354 36.705 7.85703 36.6399 7.85703V7.47607H33.6462C33.1907 7.47607 32.605 7.60306 32.3446 7.85703V7.47607H27.0081V7.85703C26.6177 7.53957 25.9018 7.47607 25.5764 7.47607H22.0621V7.85703C21.7367 7.53957 20.9558 7.47607 20.5653 7.47607H16.6605L15.7494 8.42846L14.9034 7.47607H14.1875L16.1399 9.38084L17.1161 8.36496H20.5653C21.4113 8.36496 22.3875 8.61893 22.3875 9.82528C22.3875 11.0951 21.4764 11.3491 20.5002 11.3491H19.1986V12.3015L20.1748 13.2539V12.3015H20.5002C20.9558 12.3015 21.5415 12.3015 21.997 12.111V13.8253H24.9256V12.1745H25.0558C25.251 12.1745 25.251 12.1745 25.251 12.365V13.8253H34.1018C34.6875 13.8253 35.2732 13.6983 35.5986 13.4443V13.8253H38.397C38.9177 13.8888 39.5034 13.8253 39.9589 13.5713ZM27.0081 11.2856C27.1383 11.4761 27.2034 11.73 27.2034 12.111V12.9999H26.097V12.4285C26.097 12.1745 26.097 11.73 25.9018 11.5396C25.7716 11.3491 25.5113 11.3491 25.1208 11.3491H23.9494V12.9999H22.8431V8.49195H25.3161C25.8367 8.49195 26.2923 8.49195 26.6177 8.68242C26.9431 8.8729 27.2034 9.19036 27.2034 9.6983C27.2034 10.3967 26.7478 10.7777 26.4224 10.9046C26.7478 11.0316 26.9431 11.1586 27.0081 11.2856ZM31.4986 9.44433H28.9605V10.2697H31.4335V11.1586H28.9605V12.0475H31.4986V12.9999H27.8542V8.49195H31.4986V9.44433ZM34.2319 12.9999H32.1494V12.0475H34.2319C34.4272 12.0475 34.5573 12.0475 34.6875 11.9205C34.7526 11.857 34.8177 11.73 34.8177 11.6031C34.8177 11.4761 34.7526 11.3491 34.6875 11.2856C34.6224 11.2221 34.4923 11.1586 34.297 11.1586C33.2558 11.0951 32.0192 11.1586 32.0192 9.76179C32.0192 9.12687 32.4097 8.42846 33.5812 8.42846H35.7288V9.50782H33.7113C33.5161 9.50782 33.3859 9.50782 33.2558 9.57131C33.1256 9.6348 33.1256 9.76179 33.1256 9.88877C33.1256 10.0792 33.2558 10.1427 33.3859 10.2062C33.5161 10.2697 33.6462 10.2697 33.7764 10.2697H34.3621C34.9478 10.2697 35.3383 10.3967 35.5986 10.6507C35.7938 10.8412 35.924 11.1586 35.924 11.6031C35.924 12.5554 35.3383 12.9999 34.2319 12.9999Z" fill="#228FE0"/>
<path id="Vector_13" d="M37.3571 9.88899C37.3571 10.0795 37.4222 10.143 37.6175 10.2065C37.7476 10.2699 37.8778 10.2699 38.0079 10.2699H38.5936C38.9841 10.2699 39.2444 10.3334 39.5048 10.4604L38.5286 9.50804H37.9429C37.7476 9.50804 37.6175 9.50804 37.4873 9.57153C37.4222 9.63502 37.3571 9.76201 37.3571 9.88899ZM35.0794 6.07947L35.2095 6.26994H35.2746L35.0794 6.07947ZM31.5 2.5874L32.6063 5.19058V3.66677L31.5 2.5874Z" fill="#228FE0"/>
<path id="Vector_14" d="M20.3723 4.68251H20.5025C20.6326 4.68251 20.6326 4.68251 20.6326 4.87299V6.26981H25.3183V5.88886C25.7088 6.07934 26.2945 6.26981 27.0755 6.26981H29.0279L29.4183 5.25394H30.3294L30.7199 6.26981H34.4945V5.63489L33.5834 4.74601V5.44442H31.3707L31.0453 4.42854H28.7675L28.3771 5.44442H27.1406C26.6199 5.44442 25.9691 5.31743 25.5786 4.93648C25.1882 4.55553 24.9929 4.04759 24.9929 3.22219C24.9929 2.58727 25.1231 1.95235 25.5786 1.44442C25.904 1.06347 26.4898 0.936481 27.2056 0.936481H28.2469V1.88886H27.2056C26.8152 1.88886 26.6199 1.95235 26.3596 2.14283C26.1644 2.33331 26.0342 2.71426 26.0342 3.1587C26.0342 3.66664 26.0993 3.9841 26.3596 4.23807C26.5548 4.42854 26.8152 4.49204 27.1406 4.49204H27.5961L29.0929 0.999973H29.7437L28.8326 0.111084H27.1406C26.4247 0.111084 25.839 0.238068 25.3183 0.492037V0.111084H22.4548V0.492037C22.1294 0.238068 21.739 0.111084 21.2183 0.111084H10.7406L10.0247 1.69839L9.3088 0.111084H6.44531L7.35642 0.999973H8.65801L9.76436 3.34918L10.1548 3.73013L11.3263 0.936481H13.1485V5.44442H12.0421V1.95235L10.9358 4.49204L12.8231 6.33331H20.3072L20.3723 4.68251ZM23.3659 0.936481H24.4723V5.44442H23.3659V0.936481ZM17.639 1.88886H15.1009V2.71426H17.5739V3.60315H15.1009V4.49204H17.639V5.44442H13.9945V0.936481H17.639V1.88886ZM19.4612 5.38093H18.3548V0.872989H20.8279C21.4136 0.872989 21.804 0.872989 22.1294 1.06346C22.4548 1.25394 22.6501 1.5714 22.6501 2.07934C22.6501 2.77775 22.1945 3.1587 21.8691 3.28569C22.1294 3.34918 22.3247 3.53966 22.3898 3.66664C22.5199 3.92061 22.585 4.11108 22.585 4.49204V5.38093H21.4786V4.8095C21.4786 4.55553 21.4786 4.17458 21.2834 3.92061C21.2183 3.79362 21.0231 3.79362 20.6326 3.79362H19.4612V5.38093Z" fill="#228FE0"/>
</g>
</svg>
