<svg width="41" height="18" viewBox="0 0 41 18" fill="none" xmlns="http://www.w3.org/2000/svg">
<g id="Group">
<path id="Vector" d="M7.74887 2.70399C8.23158 2.11493 8.5591 1.32407 8.47278 0.515869C7.76617 0.550166 6.90389 0.970712 6.40468 1.56017C5.9564 2.06501 5.5597 2.88899 5.66316 3.66329C6.45625 3.7304 7.24878 3.27649 7.74887 2.70399ZM8.46373 3.81446C7.31181 3.74751 6.33237 4.45227 5.78223 4.45227C5.23186 4.45227 4.38943 3.84821 3.4783 3.86446C2.29243 3.88149 1.19207 4.53563 0.590287 5.57602C-0.64748 7.65735 0.263649 10.7447 1.4673 12.4398C2.05179 13.2784 2.75632 14.2018 3.68451 14.1686C4.56152 14.135 4.9053 13.6145 5.9713 13.6145C7.03658 13.6145 7.34624 14.1686 8.27458 14.1518C9.23736 14.135 9.83923 13.3127 10.4237 12.4733C11.0943 11.5173 11.3688 10.5942 11.386 10.5435C11.3687 10.5267 9.52957 9.83837 9.51251 7.77438C9.49514 6.04618 10.9565 5.22407 11.0253 5.17313C10.2001 3.98251 8.91073 3.84821 8.46373 3.81446ZM18.4939 1.47556C20.9976 1.47556 22.741 3.15931 22.741 5.61071C22.741 8.07087 20.9617 9.76337 18.4311 9.76337H15.6591V14.0642H13.6562V1.47556H18.4939ZM15.659 8.12321H17.9571C19.7009 8.12321 20.6933 7.20727 20.6933 5.61946C20.6933 4.03181 19.7009 3.12446 17.966 3.12446H15.659V8.12321ZM23.2643 11.4559C23.2643 9.85056 24.5252 8.86477 26.7609 8.74267L29.336 8.59439V7.88782C29.336 6.86712 28.6296 6.25642 27.4495 6.25642C26.3314 6.25642 25.6339 6.77978 25.4642 7.59993H23.6401C23.7474 5.94228 25.1958 4.72095 27.5209 4.72095C29.801 4.72095 31.2585 5.89868 31.2585 7.73938V14.0642H29.4074V12.555H29.3629C28.8175 13.5758 27.6281 14.2213 26.3942 14.2213C24.5521 14.2213 23.2643 13.1045 23.2643 11.4559ZM29.3359 10.6271V9.90306L27.0199 10.0426C25.8664 10.1212 25.2137 10.6184 25.2137 11.4036C25.2137 12.2061 25.8932 12.7296 26.9305 12.7296C28.2807 12.7295 29.3359 11.8222 29.3359 10.6271ZM33.006 17.4405V15.9138C33.1489 15.9486 33.4707 15.9486 33.6317 15.9486C34.5259 15.9486 35.0088 15.5823 35.3038 14.6401C35.3038 14.6226 35.4738 14.0817 35.4738 14.073L32.076 4.88665H34.1682L36.547 12.3544H36.5826L38.9615 4.88665H41L37.4766 14.544C36.6721 16.7688 35.7421 17.4841 33.7928 17.4841C33.6317 17.4841 33.1488 17.4666 33.006 17.4405Z" fill="#202020"/>
</g>
</svg>
