<svg width="41" height="16" viewBox="0 0 41 16" fill="none" xmlns="http://www.w3.org/2000/svg">
<g id="Group">
<path id="Vector" d="M19.138 7.78604V12.4132H17.6328V0.986816H21.623C22.6343 0.986816 23.4966 1.31572 24.2022 1.97346C24.9234 2.63119 25.284 3.43424 25.284 4.3826C25.284 5.35393 24.9234 6.15697 24.2022 6.80705C23.5045 7.45713 22.6422 7.77838 21.623 7.77838H19.138V7.78604ZM19.138 2.39408V6.37877H21.6544C22.2502 6.37877 22.752 6.17994 23.1439 5.78986C23.5437 5.39978 23.7475 4.92564 23.7475 4.39025C23.7475 3.86252 23.5437 3.39596 23.1439 3.00596C22.7519 2.60057 22.258 2.40174 21.6544 2.40174H19.138V2.39408ZM29.2194 4.33674C30.3326 4.33674 31.2106 4.62736 31.8534 5.20861C32.4963 5.78986 32.8176 6.58525 32.8176 7.59486V12.4132H31.383V11.3272H31.3203C30.701 12.2221 29.87 12.6656 28.8353 12.6656C27.9494 12.6656 27.2125 12.4132 26.6167 11.9008C26.0209 11.3884 25.723 10.7535 25.723 9.98877C25.723 9.17807 26.0366 8.53564 26.6638 8.06143C27.291 7.57963 28.1298 7.34252 29.1724 7.34252C30.0661 7.34252 30.803 7.50314 31.3753 7.82432V7.48783C31.3753 6.97541 31.1715 6.54713 30.7559 6.18768C30.3404 5.82822 29.8544 5.65229 29.2978 5.65229C28.459 5.65229 27.7926 5.99643 27.3066 6.69244L25.9817 5.88174C26.7108 4.84916 27.7926 4.33674 29.2194 4.33674ZM27.2753 10.0117C27.2753 10.3941 27.4399 10.7153 27.7769 10.9677C28.1062 11.2201 28.4982 11.3501 28.9451 11.3501C29.5801 11.3501 30.1445 11.1206 30.6384 10.6617C31.1323 10.2028 31.3831 9.66744 31.3831 9.04799C30.9127 8.68853 30.2621 8.50494 29.4233 8.50494C28.8118 8.50494 28.3023 8.65025 27.8946 8.93322C27.4791 9.2315 27.2753 9.59104 27.2753 10.0117ZM41.002 4.58908L35.9848 15.8472H34.4326L36.2983 11.9084L32.9901 4.58908H34.6285L37.0117 10.2028H37.0431L39.3635 4.58908H41.002Z" fill="#202020"/>
<path id="Vector_2" d="M13.0201 5.47534H6.71094V7.99925L10.3445 8.00003C10.1971 8.83979 9.72284 9.55565 8.99613 10.0329V10.0334L8.99693 10.0329L8.9315 11.5414L11.1598 11.6696L11.159 11.6704C12.4219 10.5301 13.1455 8.8444 13.1455 6.85284C13.1459 6.39094 13.1039 5.92993 13.0201 5.47534Z" fill="#0085F7"/>
<path id="Vector_3" d="M8.99678 10.033L8.99598 10.0335C8.39403 10.4294 7.61896 10.6609 6.71239 10.6609C4.96028 10.6609 3.47395 9.50914 2.94167 7.95656H2.94143L2.94167 7.95734L1.08138 7.66992L0.710938 9.64578C1.81642 11.7855 4.08807 13.2537 6.71247 13.2537C8.526 13.2537 10.0496 12.672 11.1589 11.6705C11.1592 11.6703 11.1595 11.67 11.1598 11.6697L8.99678 10.033Z" fill="#00A94B"/>
<path id="Vector_4" d="M2.73515 6.70374C2.73515 6.2678 2.80962 5.8464 2.94527 5.45022L2.36439 3.76147H0.714137C0.257131 4.6464 0 5.64523 0 6.70374C0 7.76226 0.257932 8.76108 0.714137 9.64601L0.714457 9.64577L2.94527 7.95726C2.80636 7.55322 2.7354 7.1299 2.73515 6.70374Z" fill="#FFBB00"/>
<path id="Vector_5" d="M6.71279 0.153076C4.08895 0.153076 1.81634 1.62151 0.710938 3.76151L2.94199 5.45026C3.47427 3.89769 4.9606 2.74589 6.71271 2.74589C7.7028 2.74589 8.5895 3.07862 9.28955 3.7287L11.2063 1.86026C10.0422 0.802373 8.52448 0.153076 6.71279 0.153076Z" fill="#FF4031"/>
</g>
</svg>
