<svg width="41" height="26" viewBox="0 0 41 26" fill="none" xmlns="http://www.w3.org/2000/svg">
<g id="Group">
<path id="Vector" d="M40.5262 24.3269C40.5262 24.9269 39.9796 25.4138 39.3042 25.4138H1.69074C1.01589 25.4138 0.46875 24.9269 0.46875 24.3269V1.67354C0.46875 1.07308 1.01589 0.586182 1.69074 0.586182H39.3042C39.9796 0.586182 40.5262 1.07308 40.5262 1.67354V24.3269Z" fill="#F1F2F2"/>
<path id="Vector_2" d="M20.5004 4.88501H32.4173C33.9951 4.88501 34.4852 6.01421 34.4852 6.81191V19.1875C34.4852 19.9554 33.9951 21.114 32.4173 21.114H8.58353C7.02129 21.114 6.51562 19.9549 6.51562 19.1875V6.81237C6.51562 6.01466 7.02129 4.88547 8.58353 4.88547L20.5004 4.88501Z" fill="white"/>
<path id="Vector_3" d="M32.4142 21.2643H8.58044C6.82357 21.2643 6.35938 19.9066 6.35938 19.188V6.81238C6.35938 6.04088 6.82734 4.7356 8.58044 4.7356H32.4142C34.1677 4.7356 34.6352 6.04088 34.6352 6.81238V19.188C34.6352 20.1885 33.9401 21.2643 32.4142 21.2643ZM8.58044 5.03445C7.0691 5.03445 6.6657 6.15169 6.6657 6.81192V19.1875C6.6657 19.8027 7.0658 20.9646 8.58044 20.9646H32.4142C33.9255 20.9646 34.3289 19.8469 34.3289 19.1875V6.81238C34.3289 5.99261 33.828 5.03491 32.4142 5.03491L8.58044 5.03445Z" fill="#0078BE"/>
<path id="Vector_4" d="M14.8895 14.2946H19.2398L21.6748 11.7502H26.0406L22.3336 15.7856H8.625V13.09H15.9772L14.8895 14.2946Z" fill="#0078BE"/>
<path id="Vector_5" d="M26.0411 11.7503H21.6753L19.2402 14.3103H14.8594L18.5663 10.2749H32.2905V12.9549H24.9383L26.0411 11.7503Z" fill="#FFE236"/>
<g id="Group_2">
<path id="Vector_6" d="M30.5307 9.28136C30.3318 9.40182 30.0702 9.46251 29.8261 9.46251C29.1216 9.46251 28.4934 8.95033 28.4934 8.24274C28.4934 7.53515 29.0603 7.02297 29.7795 7.02297C30.0406 7.02297 30.3318 7.06849 30.5307 7.18849V7.94159C30.378 7.80596 30.1475 7.7609 29.8874 7.7609C29.6423 7.7609 29.3516 7.9563 29.3516 8.27262C29.3516 8.54343 29.6423 8.70895 29.8874 8.70895C30.1631 8.70895 30.3318 8.69377 30.5307 8.54343V9.28136ZM32.3229 8.70895V9.2809C31.6947 9.73239 30.9755 9.3563 30.9755 8.82941V7.77561H30.6692V7.08274H30.9755V6.52596L31.8332 6.07446V7.08274H32.3229V7.71538H31.879V8.69377C31.878 8.87492 32.1848 8.85975 32.3229 8.70895ZM26.1201 7.83584L26.2572 7.18849C27.1149 6.90251 28.3412 7.06803 28.3412 7.82067V9.41699H27.5447L27.5141 9.34159C27.147 9.56734 25.7987 9.67308 25.9825 8.634C26.0904 8.01653 26.81 7.86619 27.254 7.86619C27.4835 7.86619 27.5758 7.65561 27.2837 7.6409C27.0231 7.62527 26.5023 7.65515 26.1201 7.83584ZM11.6598 7.83584L11.7824 7.18849C12.6401 6.90251 13.8658 7.06803 13.8658 7.82067V9.41699H13.0538L13.0383 9.34159C12.6862 9.56734 11.2922 9.67308 11.5067 8.634C11.6141 8.01653 12.3187 7.86619 12.7626 7.86619C12.9926 7.86619 13.0845 7.65561 12.8088 7.6409C12.5482 7.62527 12.0119 7.65515 11.6598 7.83584ZM21.4782 8.27262C21.4782 8.97975 20.8806 9.47676 20.161 9.47676C19.4414 9.47676 18.8282 8.94986 18.8282 8.24182C18.8282 7.5494 19.4413 7.00734 20.1459 7.00734C20.8811 7.0078 21.4782 7.54987 21.4782 8.27262ZM25.8284 8.70895V9.2809C25.1861 9.73239 24.4815 9.3563 24.4815 8.82941V7.77561H24.1752V7.08274H24.4815V6.52596L25.3548 6.07446V7.08274H25.8298V7.71538H25.3699V8.69377C25.3689 8.87492 25.6913 8.85975 25.8284 8.70895Z" fill="#0078BE"/>
<path id="Vector_7" d="M10.234 5.90894C11.0299 5.90894 11.6124 6.94802 10.8772 7.59491C11.7962 8.15215 11.3824 9.38664 10.3565 9.40181H8.64062V5.90894H10.234ZM18.6734 9.28135C18.4745 9.40181 18.2445 9.4625 17.9844 9.4625C17.2643 9.4625 16.6516 8.95031 16.6516 8.24273C16.6516 7.53514 17.2186 7.02296 17.9231 7.02296C18.1833 7.02296 18.4745 7.06848 18.6734 7.18848V7.94158C18.5051 7.80595 18.3058 7.76089 18.0456 7.76089C17.785 7.76089 17.4943 7.95629 17.4943 8.27261C17.4943 8.54342 17.8001 8.70894 18.0456 8.70894C18.3058 8.70894 18.4745 8.69376 18.6734 8.54342V9.28135ZM16.4829 7.89606V9.41698H15.6252V8.10664C15.6252 7.64043 14.9358 7.6556 14.9358 8.10664V9.41698H14.0785V7.08273H14.9518V7.27859C15.6714 6.75215 16.4829 7.23353 16.4829 7.89606ZM24.05 7.89606V9.41698H23.1923V8.10664C23.1923 7.64043 22.5029 7.6556 22.5029 8.10664V9.41698H21.6452V7.08273H22.5029V7.27859C23.2371 6.75215 24.05 7.23353 24.05 7.89606ZM27.2815 7.64043C27.5723 7.65514 27.4804 7.86572 27.2513 7.86572C26.8069 7.86572 26.0868 8.01606 25.9803 8.63353C25.7961 9.67261 27.1448 9.56687 27.5119 9.34112L27.5421 9.41652H28.3381V7.8202C28.3381 7.06756 27.1123 6.90204 26.2551 7.18802L26.117 7.83537C26.5006 7.65514 27.0213 7.62526 27.2815 7.64043Z" fill="#0078BE"/>
<path id="Vector_8" d="M12.8088 7.64044C13.0845 7.65515 12.993 7.86573 12.7626 7.86573C12.3187 7.86573 11.6136 8.01607 11.5067 8.63354C11.2922 9.67262 12.6862 9.56688 13.0383 9.34113L13.0538 9.41653H13.8658V7.82021C13.8658 7.06757 12.6401 6.90205 11.7824 7.18803L11.6598 7.83538C12.0119 7.65515 12.5482 7.62527 12.8088 7.64044ZM20.1459 7.0078C19.4414 7.0078 18.8282 7.54987 18.8282 8.24228C18.8282 8.94987 19.4414 9.47722 20.161 9.47722C20.8806 9.47722 21.4782 8.98021 21.4782 8.27308C21.4782 7.54987 20.8811 7.0078 20.1459 7.0078ZM25.3689 8.69377V7.71538H25.8284V7.08274H25.3534V6.07446L24.4806 6.52596V7.08274H24.1743V7.77561H24.4806V8.82941C24.4806 9.3563 25.1847 9.73285 25.8279 9.2809V8.70895C25.6913 8.85975 25.3689 8.87492 25.3689 8.69377Z" fill="#0078BE"/>
<path id="Vector_9" d="M8.64062 5.90894V9.40181H10.3565C11.3829 9.3871 11.7967 8.15215 10.8772 7.59491C11.6124 6.94802 11.0299 5.90894 10.234 5.90894H8.64062ZM18.6734 8.54342C18.4745 8.69376 18.3058 8.70894 18.0456 8.70894C17.8001 8.70894 17.4943 8.54342 17.4943 8.27261C17.4943 7.95629 17.785 7.76089 18.0456 7.76089C18.3058 7.76089 18.5051 7.80595 18.6734 7.94158V7.18848C18.4745 7.06802 18.1833 7.02296 17.9231 7.02296C17.2186 7.02296 16.6516 7.53468 16.6516 8.24227C16.6516 8.94986 17.2643 9.46204 17.9844 9.46204C18.2445 9.46204 18.4745 9.40135 18.6734 9.28089V8.54342ZM14.9513 7.27859V7.08273H14.0781V9.41652H14.9353V8.10618C14.9353 7.65514 15.6248 7.63997 15.6248 8.10618V9.41652H16.4825V7.8956C16.4829 7.23353 15.6714 6.75215 14.9513 7.27859ZM22.5029 7.27859V7.08273H21.6452V9.41652H22.5029V8.10618C22.5029 7.65514 23.1923 7.63997 23.1923 8.10618V9.41652H24.05V7.8956C24.05 7.23353 23.2371 6.75215 22.5029 7.27859ZM30.529 8.54342C30.3301 8.69376 30.1614 8.70894 29.8857 8.70894C29.6406 8.70894 29.3499 8.54342 29.3499 8.27261C29.3499 7.95629 29.6406 7.76089 29.8857 7.76089C30.1463 7.76089 30.3763 7.80595 30.529 7.94158V7.18848C30.3301 7.06802 30.0389 7.02296 29.7778 7.02296C29.0586 7.02296 28.4917 7.53468 28.4917 8.24227C28.4917 8.94986 29.1199 9.46204 29.8244 9.46204C30.07 9.46204 30.3301 9.40135 30.529 9.28089V8.54342ZM31.8763 8.69376V7.71537H32.3202V7.08273H31.8301V6.07445L30.9724 6.52595V7.08273H30.6666V7.7756H30.9724V8.8294C30.9724 9.35629 31.692 9.73284 32.3202 9.28089V8.70894C32.1831 8.85974 31.8763 8.87491 31.8763 8.69376ZM20.6494 8.27261C20.6494 8.52825 20.4199 8.73928 20.1593 8.73928C19.8987 8.73928 19.6842 8.52825 19.6842 8.24227C19.6842 7.94158 19.8987 7.7756 20.1593 7.7756C20.4199 7.7756 20.6494 7.94158 20.6494 8.27261Z" fill="#0078BE"/>
<path id="Vector_10" d="M9.61766 8.00147H10.0008C10.4754 8.00147 10.5211 8.70905 10.0159 8.70905H9.61719L9.61766 8.00147ZM13.0028 8.39319V8.67917C13.0028 8.99549 12.3595 9.08561 12.3595 8.75411C12.3595 8.45342 12.8194 8.36331 13.0028 8.39319ZM27.4772 8.39319V8.67917C27.4772 8.99549 26.8494 9.08561 26.8494 8.75411C26.8494 8.45342 27.3094 8.36331 27.4772 8.39319ZM10.0008 6.61664C10.4447 6.8125 10.2916 7.27871 10.0159 7.27871H9.61719V6.61664C9.61766 6.60147 9.89382 6.5863 10.0008 6.61664Z" fill="#0078BE"/>
</g>
<path id="Vector_11" d="M20.1634 7.77572C19.9028 7.77572 19.6884 7.94124 19.6884 8.24239C19.6884 8.52836 19.9028 8.7394 20.1634 8.7394C20.424 8.7394 20.6535 8.52836 20.6535 8.27273C20.6535 7.9417 20.424 7.77572 20.1634 7.77572ZM26.8568 8.75411C26.8568 9.08561 27.4845 8.99503 27.4845 8.67917V8.39319C27.3167 8.36331 26.8568 8.45342 26.8568 8.75411ZM9.625 6.61664V7.27871H10.0237C10.2994 7.27871 10.4525 6.81204 10.0086 6.61664C9.90116 6.5863 9.625 6.60147 9.625 6.61664ZM12.3668 8.75411C12.3668 9.08561 13.0101 8.99503 13.0101 8.67917V8.39319C12.8268 8.36331 12.3668 8.45342 12.3668 8.75411ZM9.625 8.70905H10.0237C10.5289 8.70905 10.4832 8.00147 10.0086 8.00147H9.62547L9.625 8.70905Z" fill="white"/>
<path id="Vector_12" d="M19.2865 18.9319C19.2865 18.1186 18.9491 17.5921 18.1069 17.5921C17.3105 17.5921 16.8354 18.1793 16.8354 18.8413C16.8354 19.5641 17.4024 20.0914 18.1988 20.0914C18.8883 20.0914 19.2408 19.8202 19.2408 19.8202V19.1278C18.9495 19.2786 18.6281 19.3682 18.3982 19.3682C17.9387 19.3682 17.6936 19.2473 17.6936 18.9319H19.2865ZM10.2952 19.0524L10.9998 18.0583V20.0312H11.9187L11.9338 16.6133H10.9998L10.2952 17.6372L9.57514 16.6133H8.64062L8.65618 20.0312H9.57514V18.0583L10.2952 19.0524ZM20.2818 18.6611C20.3737 18.4652 20.5726 18.3002 20.8332 18.3002C20.9713 18.3002 21.1239 18.3609 21.2319 18.4363V17.6983C21.1555 17.6082 21.033 17.5779 20.91 17.5779C20.6956 17.5779 20.4043 17.6983 20.2818 17.8491V17.6068H19.4547V20.0312H20.2818V18.6611ZM13.2359 19.8804C13.5267 20.0009 13.8792 20.0455 14.1092 20.0455C14.998 20.0455 15.2581 19.5949 15.2581 19.2174C15.2581 18.7811 14.7986 18.5397 14.3849 18.4799C14.3236 18.4799 14.1554 18.4344 14.1554 18.3595C14.1554 18.2988 14.2015 18.2234 14.4009 18.2234C14.5691 18.2234 14.8755 18.2841 15.0286 18.3595L14.9985 17.7259C14.7685 17.6519 14.4466 17.5912 14.202 17.5912C13.6968 17.5912 13.2519 17.8919 13.2519 18.3733C13.2519 18.7503 13.5276 18.9462 13.972 19.0358C14.1558 19.051 14.3241 19.1264 14.3241 19.2165C14.3241 19.3383 14.2015 19.3673 14.079 19.3673C13.9716 19.3673 13.6959 19.3976 13.2364 19.2165L13.2359 19.8804Z" fill="#0078BE"/>
<path id="Vector_13" d="M16.3762 19.2934V18.3003H16.8512V17.6529H16.3455V16.6134L15.4723 17.0649V17.652H15.1664V18.3444H15.4723V19.4281C15.4723 19.9706 16.1924 20.3316 16.8512 19.8791V19.2925C16.7131 19.4286 16.3762 19.4594 16.3762 19.2934ZM13.083 20.001V17.6525H12.1635V20.001H13.083ZM12.6235 17.5771C12.8992 17.5771 13.1287 17.3518 13.1287 17.0796C13.1287 16.8244 12.8992 16.6134 12.6235 16.6134C12.3629 16.6134 12.1484 16.8244 12.1484 17.0796C12.1484 17.3518 12.3629 17.5771 12.6235 17.5771ZM27.7266 19.8805C28.0173 20.001 28.3694 20.0456 28.5993 20.0456C29.4886 20.0456 29.7643 19.595 29.7643 19.2175C29.7643 18.7812 29.3043 18.5398 28.8755 18.4801C28.8147 18.4801 28.646 18.4345 28.646 18.3596C28.646 18.2989 28.6926 18.2235 28.9071 18.2235C29.0748 18.2235 29.3666 18.2842 29.5348 18.3596L29.4886 17.726C29.2591 17.652 28.9372 17.5913 28.6926 17.5913C28.1874 17.5913 27.7426 17.892 27.7426 18.3734C27.7426 18.7504 28.0183 18.9463 28.4622 19.0359C28.646 19.0511 28.8147 19.1265 28.8147 19.2166C28.8147 19.3384 28.6912 19.3674 28.5692 19.3674C28.4613 19.3674 28.186 19.3978 27.727 19.2166L27.7266 19.8805ZM25.0304 19.0373C24.7392 19.2483 24.5097 19.2934 24.1266 19.2934C23.545 19.2934 23.0238 18.8272 23.0238 18.3449C23.0238 17.818 23.3146 17.321 24.1266 17.321C24.4937 17.321 24.8005 17.3812 25.0304 17.5922V16.778C24.7392 16.6134 24.341 16.5679 23.989 16.5679C22.9319 16.5679 22.1199 17.3053 22.1199 18.315C22.1199 19.3081 23.0087 20.0607 24.0502 20.0607C24.4023 20.0607 24.7392 19.9853 25.0304 19.8203V19.0373ZM26.5008 18.1798C26.7911 18.195 26.7001 18.4203 26.4702 18.4203C26.0107 18.4203 25.2755 18.5702 25.1841 19.1881C24.9843 20.2424 26.3632 20.1518 26.7303 19.9256L26.7609 19.9858H27.588V18.361C27.588 17.5932 26.3316 17.4424 25.4433 17.7279L25.3207 18.3748C25.7044 18.195 26.2402 18.1642 26.5008 18.1798ZM30.7436 17.8332V16.6138H29.8859V20.0322H30.7436V18.692C30.7436 18.2401 31.4477 18.2249 31.4477 18.692V20.0318H32.3214V18.4805C32.3214 17.7881 31.4943 17.3058 30.7436 17.8332Z" fill="#0078BE"/>
<path id="Vector_14" d="M17.6641 18.4652C17.7102 18.239 17.894 18.1646 18.0628 18.1646C18.2315 18.1646 18.4459 18.239 18.4459 18.4652H17.6641ZM26.702 18.9475V19.2331C26.702 19.5645 26.0587 19.64 26.0587 19.3085C26.0587 19.0073 26.5337 18.9319 26.702 18.9475Z" fill="white"/>
</g>
</svg>
