<svg width="41" height="14" viewBox="0 0 41 14" fill="none" xmlns="http://www.w3.org/2000/svg">
<g id="Group">
<path id="Vector" d="M16.756 0.741211L14.6983 13.2338H17.9872L20.0437 0.741211H16.756ZM26.6767 5.82998C25.5274 5.27625 24.8228 4.90252 24.8228 4.33617C24.8368 3.82123 25.4186 3.29368 26.7177 3.29368C27.7863 3.2675 28.5717 3.51249 29.1675 3.75625L29.466 3.88622L29.9131 1.27246C29.2635 1.02747 28.2334 0.757525 26.9611 0.757525C23.7132 0.757525 21.4262 2.40502 21.412 4.76131C21.3851 6.50011 23.0494 7.465 24.2948 8.04383C25.5671 8.63759 26.0002 9.02256 26.0002 9.55011C25.9862 10.3601 24.9714 10.7338 24.0246 10.7338C22.7127 10.7338 22.0079 10.5413 20.9381 10.09L20.505 9.89751L20.0451 12.6138C20.8177 12.9489 22.2385 13.2438 23.7133 13.2589C27.165 13.2589 29.411 11.6363 29.4393 9.12511C29.4505 7.74756 28.573 6.69246 26.6767 5.82998ZM38.345 0.779872H35.8004C35.0163 0.779872 34.4205 0.999913 34.081 1.78493L29.1955 13.2338H32.6472L33.5978 10.7551H37.4596L37.9528 13.2438H40.9972L38.345 0.779872ZM34.5551 8.25358C34.6217 8.25989 35.8799 4.2073 35.8799 4.2073L36.8819 8.25358H34.5551ZM11.95 0.741211L8.72765 9.22876L8.37662 7.55494C7.7808 5.62365 5.91281 3.52497 3.82812 2.48248L6.77886 13.2213H10.2588L15.43 0.742581H11.95V0.741211Z" fill="#2394BC"/>
<path id="Vector_2" d="M7.29547 2.35235C7.04436 1.3998 6.24351 0.757362 5.15585 0.743652H0.0525562L0 0.974798C3.98092 1.93228 7.32231 4.8785 8.40632 7.64978L7.29547 2.35235Z" fill="#EFC75E"/>
</g>
</svg>
