<svg width="41" height="24" viewBox="0 0 41 24" fill="none" xmlns="http://www.w3.org/2000/svg">
<g id="Group">
<path id="Vector" fill-rule="evenodd" clip-rule="evenodd" d="M20.5 20.75C22.9344 18.625 24.4719 15.5 24.4719 12C24.4719 8.5 22.9344 5.4375 20.5 3.25C18.3859 1.375 15.5031 0.1875 12.4281 0.1875C5.76562 0.1875 0.320312 5.5 0.320312 12C0.320312 18.5 5.76562 23.75 12.4281 23.75C15.5031 23.8125 18.3859 22.625 20.5 20.75Z" fill="#07A9E2"/>
<path id="Vector_2" fill-rule="evenodd" clip-rule="evenodd" d="M0.320312 12C0.320312 18.5 5.76562 23.75 12.4281 23.75C15.5672 23.75 18.3859 22.625 20.5 20.6875C22.9344 18.5625 24.4719 15.4375 24.4719 11.9375C24.4719 8.4375 22.9344 5.4375 20.5 3.25C18.3859 1.375 15.5031 0.1875 12.4281 0.1875" fill="#009DDD"/>
<path id="Vector_3" fill-rule="evenodd" clip-rule="evenodd" d="M20.5031 3.25C18.3891 1.375 15.5062 0.1875 12.4312 0.1875H11.8547C8.075 2.875 5.64062 7.1875 5.64062 12C5.64062 16.8125 8.075 21.125 11.7906 23.75H12.3672C15.5062 23.75 18.325 22.625 20.4391 20.6875C22.8734 18.5625 24.4109 15.4375 24.4109 11.9375C24.4109 8.4375 22.9375 5.4375 20.5031 3.25Z" fill="#0284CC"/>
<path id="Vector_4" fill-rule="evenodd" clip-rule="evenodd" d="M28.6328 0.1875C25.4938 0.1875 22.675 1.3125 20.4969 3.25C20.0484 3.625 19.6641 4.0625 19.2797 4.5H21.7141C22.0344 4.875 22.3547 5.3125 22.6109 5.75H18.3187C18.0625 6.1875 17.8062 6.5625 17.6141 7H23.3156C23.5078 7.4375 23.7 7.8125 23.8281 8.25H17.1656C17.0375 8.6875 16.9094 9.0625 16.7812 9.5H24.2125C24.4047 10.3125 24.4688 11.125 24.4688 12C24.4688 13.3125 24.2766 14.5625 23.8281 15.75H17.1656C17.2937 16.1875 17.4859 16.5625 17.6781 17H23.3797C23.1875 17.4375 22.9313 17.875 22.675 18.25H18.3828C18.6391 18.6875 18.9594 19.125 19.2797 19.5H21.7141C21.3297 19.9375 20.9453 20.375 20.4969 20.75C22.675 22.625 25.4938 23.8125 28.6328 23.8125C35.2953 23.8125 40.6766 18.5625 40.6766 12.0625C40.6766 5.5 35.2953 0.1875 28.6328 0.1875Z" fill="#FF2957"/>
<path id="Vector_5" fill-rule="evenodd" clip-rule="evenodd" d="M28.6328 0.1875C25.4938 0.1875 22.675 1.3125 20.4969 3.25C20.0484 3.625 19.6641 4.0625 19.2797 4.5H21.7141C22.0344 4.875 22.3547 5.3125 22.6109 5.75H18.3187C18.0625 6.1875 17.8062 6.5625 17.6141 7H23.3156C23.5078 7.4375 23.7 7.8125 23.8281 8.25H17.1656C17.0375 8.6875 16.9094 9.0625 16.7812 9.5H24.2125C24.4047 10.3125 24.4688 11.125 24.4688 12C24.4688 13.3125 24.2766 14.5625 23.8281 15.75H17.1656C17.2937 16.1875 17.4859 16.5625 17.6781 17H23.3797C23.1875 17.4375 22.9313 17.875 22.675 18.25H18.3828C18.6391 18.6875 18.9594 19.125 19.2797 19.5H21.7141C21.3297 19.9375 20.9453 20.375 20.4969 20.75C22.675 22.625 25.4938 23.8125 28.6328 23.8125C35.2953 23.8125 40.6766 18.5625 40.6766 12.0625" fill="#ED1C2E"/>
<path id="Vector_6" fill-rule="evenodd" clip-rule="evenodd" d="M20.5 20.75C22.9344 18.625 24.4719 15.5 24.4719 12C24.4719 8.5 22.9344 5.4375 20.5 3.25V20.75Z" fill="#0466B5"/>
<path id="Vector_7" fill-rule="evenodd" clip-rule="evenodd" d="M36.5156 14.5625C36.5156 14.375 36.7078 14.1875 36.9 14.1875C37.0922 14.1875 37.2844 14.375 37.2844 14.5625C37.2844 14.75 37.0922 14.9375 36.9 14.9375C36.7078 14.9375 36.5156 14.75 36.5156 14.5625ZM36.9 14.875C37.0922 14.875 37.1563 14.75 37.1563 14.5625C37.1563 14.375 37.0281 14.3125 36.9 14.3125C36.7078 14.3125 36.5797 14.4375 36.5797 14.5625C36.5797 14.6875 36.7719 14.875 36.9 14.875ZM36.9 14.6875H36.8359V14.375H37.0281L37.0922 14.4375C37.0922 14.5 37.0922 14.5 37.0281 14.5L37.0922 14.625H37.0281L36.9641 14.5H36.9V14.6875ZM36.9 14.5H36.9641V14.4375H36.9V14.5Z" fill="white"/>
<path id="Vector_8" fill-rule="evenodd" clip-rule="evenodd" d="M20.4969 3.24996C20.0484 3.62496 19.6641 4.06246 19.2797 4.49996H21.7141C22.0344 4.87496 22.3547 5.31246 22.6109 5.74996H18.3187C18.0625 6.18746 17.8062 6.56246 17.6141 6.99996H23.3156C23.5078 7.43746 23.7 7.81246 23.8281 8.24996H17.1656C17.0375 8.68746 16.9094 9.06246 16.7812 9.49996H24.2125C24.4047 10.3125 24.4688 11.125 24.4688 12C24.4688 13.3125 24.2766 14.5625 23.8281 15.75H17.1656C17.2937 16.1875 17.4859 16.5625 17.6781 17H23.3797C23.1875 17.4375 22.9313 17.875 22.675 18.25H18.3828C18.6391 18.6875 18.9594 19.125 19.2797 19.5H21.7141C21.3297 19.9375 20.9453 20.375 20.4969 20.75C22.675 22.625 25.4937 23.8125 28.6328 23.8125H29.2094C32.925 21.1875 35.3594 16.875 35.3594 12.0625C35.3594 7.24996 32.925 2.93746 29.2094 0.312464H28.6328C25.4937 0.187464 22.675 1.37496 20.4969 3.24996Z" fill="#D1094B"/>
<path id="Vector_9" fill-rule="evenodd" clip-rule="evenodd" d="M10.8937 14.9375H9.35625L10.2531 10.375L8.20312 14.9375H6.85781L6.60156 10.375L5.70469 14.9375H4.35938L5.5125 8.9375H7.88281L8.01094 12.6875L9.67656 8.9375H12.1109L10.8937 14.9375Z" fill="white"/>
<path id="Vector_10" fill-rule="evenodd" clip-rule="evenodd" d="M9.41562 12.3125L10.3125 10.375L9.60781 14C9.67187 14.3125 9.73594 14.6875 9.86406 15H10.8891L12.0422 9H9.8C9.54375 9.9375 9.35156 11 9.35156 12.0625C9.41562 12.125 9.41562 12.1875 9.41562 12.3125ZM27.6734 14.875C27.225 15 26.9688 15.0625 26.5844 15.0625C25.8156 15.0625 25.4312 14.6875 25.4312 14C25.4312 13.875 25.4312 13.75 25.4953 13.5625L25.5594 13.0625L25.6234 12.6875L26.3281 9H27.8016L27.6094 10.125H28.3781L28.1859 11.25H27.4172L27.0328 13.25C27.0328 13.3125 26.9687 13.4375 26.9687 13.4375C26.9687 13.6875 27.1609 13.8125 27.4813 13.8125C27.6734 13.8125 27.8016 13.8125 27.8656 13.75L27.6734 14.875ZM32.0938 10.125C31.9656 10.0625 31.9656 10.0625 31.9016 10.0625C31.8375 10.0625 31.7734 10.0625 31.7734 10H31.5812C31.0687 10 30.7484 10.1875 30.3 10.8125L30.4281 10.0625H29.0828L28.1859 14.9375H29.7234C30.2359 11.9375 30.4922 11.4375 31.1969 11.4375H31.3891L31.5812 11.5L32.0938 10.125ZM21.7156 11.625C21.7156 12.25 22.1 12.6875 22.8688 12.9375C23.5094 13.1875 23.5734 13.25 23.5734 13.5C23.5734 13.8125 23.3172 13.9375 22.6766 13.9375C22.2281 13.9375 21.7797 13.875 21.3312 13.75L21.1391 14.875H21.2031L21.4594 14.9375H21.8437C22.2281 15 22.4844 15 22.6766 15C24.2781 15 25.0469 14.5 25.0469 13.375C25.0469 12.6875 24.7266 12.3125 23.9578 12C23.3172 11.75 23.2531 11.6875 23.2531 11.5C23.2531 11.25 23.5094 11.125 24.0219 11.125C24.2781 11.125 24.7266 11.125 25.1109 11.1875L25.3031 10.0625C24.9187 10 24.3422 10 23.9578 10C22.2922 10 21.7156 10.75 21.7156 11.625ZM15.7578 14.9375H14.5406V14.4375C14.1562 14.8125 13.6438 15 12.9391 15C12.1063 15 11.5938 14.4375 11.5938 13.6875C11.5938 12.5 12.5547 11.8125 14.2203 11.8125H14.8609C14.925 11.625 14.925 11.5625 14.925 11.5C14.925 11.1875 14.6687 11.0625 13.9641 11.0625C13.5156 11.0625 13.0672 11.125 12.7469 11.1875L12.5547 11.25H12.4266L12.6188 10.1875C13.3875 10 13.8359 9.9375 14.4125 9.9375C15.6937 9.9375 16.3984 10.4375 16.3984 11.375C16.3984 11.625 16.3984 11.8125 16.2703 12.375L15.95 14.125L15.8859 14.4375L15.8219 14.6875V14.875L15.7578 14.9375ZM14.6687 12.75H14.3484C13.5156 12.75 13.0672 13 13.0672 13.5C13.0672 13.8125 13.2594 14 13.5797 14C14.2203 14 14.6687 13.5 14.6687 12.75ZM20.6906 14.8125C20.1781 14.9375 19.6656 15 19.1531 15C17.4875 15 16.5906 14.25 16.5906 12.8125C16.5906 11.125 17.6797 9.9375 19.2172 9.9375C20.4344 9.9375 21.2031 10.625 21.2031 11.6875C21.2031 12.0625 21.1391 12.375 21.0109 12.875H18V13.0625C18 13.625 18.4484 13.9375 19.2812 13.9375C19.8578 13.9375 20.3062 13.875 20.8187 13.625L20.6906 14.8125ZM19.9219 11.9375V11.6875C19.9219 11.3125 19.6656 11.0625 19.2172 11.0625C18.7688 11.0625 18.3844 11.375 18.2562 11.9375H19.9219Z" fill="#DCE5E5"/>
<path id="Vector_11" fill-rule="evenodd" clip-rule="evenodd" d="M36.7703 12.75C36.5141 14.375 35.3609 15.0625 33.8234 15.0625C32.1578 15.0625 31.4531 14.0625 31.4531 12.8125C31.4531 11.125 32.6063 9.9375 34.4 9.9375C35.9375 9.9375 36.7703 10.9375 36.7703 12.125V12.75ZM35.1688 12.125C35.1688 11.625 34.9766 11.1875 34.3359 11.1875C33.5672 11.1875 33.1188 12.0625 33.1188 12.875C33.1188 13.5 33.4391 13.9375 33.9516 13.9375C34.2719 13.9375 34.9766 13.5 35.1047 12.75C35.1688 12.5 35.1688 12.3125 35.1688 12.125Z" fill="white"/>
<path id="Vector_12" fill-rule="evenodd" clip-rule="evenodd" d="M31.5168 13.375C31.5809 12.9375 31.6449 12.4375 31.6449 12V11.875C31.5809 12.1875 31.5168 12.5 31.5168 12.875C31.4527 13 31.4527 13.1875 31.5168 13.375Z" fill="white"/>
</g>
</svg>
