<?xml version="1.0" encoding="UTF-8"?>
<svg version="1.1" xmlns="http://www.w3.org/2000/svg" width="720" height="42">
<path d="M0 0 C237.6 0 475.2 0 720 0 C720 13.86 720 27.72 720 42 C482.4 42 244.8 42 0 42 C0 28.14 0 14.28 0 0 Z " fill="#F7F7F7" transform="translate(0,0)"/>
<path d="M0 0 C79.2 0 158.4 0 240 0 C240 13.86 240 27.72 240 42 C160.8 42 81.6 42 0 42 C0 28.14 0 14.28 0 0 Z " fill="#DA3927" transform="translate(480,0)"/>
<path d="M0 0 C76.89 0 153.78 0 233 0 C233 13.86 233 27.72 233 42 C156.11 42 79.22 42 0 42 C0 28.14 0 14.28 0 0 Z " fill="#0105AF" transform="translate(0,0)"/>
<path d="M0 0 C38.61 0 77.22 0 117 0 C116.67 0.66 116.34 1.32 116 2 C114.7693985 2.01030746 113.538797 2.02061493 112.27090454 2.03123474 C100.64821785 2.12918151 89.02558215 2.2319347 77.4029789 2.33933926 C71.42833845 2.39439794 65.45369299 2.44778971 59.47900391 2.49731445 C53.70828603 2.54521075 47.93762386 2.59756088 42.16697311 2.65294075 C39.97029389 2.67325039 37.77359946 2.6919814 35.57689285 2.70907402 C32.48952011 2.73337216 29.40225017 2.76338927 26.31494141 2.79467773 C24.96625977 2.80331093 24.96625977 2.80331093 23.59033203 2.81211853 C11.29296785 2.76451263 11.29296785 2.76451263 0 7 C0 4.69 0 2.38 0 0 Z " fill="#04009F" transform="translate(0,0)"/>
<path d="M0 0 C1.65 0 3.3 0 5 0 C5 13.86 5 27.72 5 42 C4.01 42 3.02 42 2 42 C0.30973863 38.61947726 0.75555041 34.77739858 0.68359375 31.0546875 C0.66281265 30.1696756 0.64203156 29.2846637 0.62062073 28.37283325 C0.55513402 25.54030259 0.49624438 22.70767775 0.4375 19.875 C0.39431394 17.95702143 0.35069963 16.03905246 0.30664062 14.12109375 C0.19945353 9.41415949 0.0981836 4.70713033 0 0 Z " fill="#CE776E" transform="translate(715,0)"/>
<path d="M0 0 C1.65 0 3.3 0 5 0 C5 13.86 5 27.72 5 42 C4.34 42 3.68 42 3 42 C2.97494385 41.42556152 2.9498877 40.85112305 2.92407227 40.25927734 C2.80730125 37.63100279 2.68494581 35.00301605 2.5625 32.375 C2.52318359 31.47136719 2.48386719 30.56773438 2.44335938 29.63671875 C2.14124876 20.47518584 2.14124876 20.47518584 -1 12 C-1.33 11.34 -1.66 10.68 -2 10 C-1.34 10 -0.68 10 0 10 C0 6.7 0 3.4 0 0 Z " fill="#F6D6D0" transform="translate(475,0)"/>
<path d="M0 0 C0.99 0 1.98 0 3 0 C3 13.86 3 27.72 3 42 C2.01 42 1.02 42 0 42 C0 28.14 0 14.28 0 0 Z " fill="#B83C35" transform="translate(480,0)"/>
<path d="M0 0 C17.49 0 34.98 0 53 0 C53 0.33 53 0.66 53 1 C40.79 1 28.58 1 16 1 C16 1.66 16 2.32 16 3 C15.34773437 3.03738281 14.69546875 3.07476562 14.0234375 3.11328125 C8.68377043 3.51493762 4.6795908 4.16761609 0 7 C0 4.69 0 2.38 0 0 Z " fill="#03017C" transform="translate(0,0)"/>
<path d="M0 0 C0.99 0 1.98 0 3 0 C3 13.86 3 27.72 3 42 C2.34 42 1.68 42 1 42 C-0.19388403 12.86097406 -0.19388403 12.86097406 0 0 Z " fill="#2B2D9D" transform="translate(230,0)"/>
<path d="M0 0 C5.28 0 10.56 0 16 0 C12 2 12 2 8.5625 1.9375 C4.6935189 2.00537686 3.07894778 2.76076525 0 5 C0 3.35 0 1.7 0 0 Z " fill="#040190" transform="translate(0,2)"/>
</svg>
