<svg width="36" height="36" viewBox="0 0 36 36" fill="none" xmlns="http://www.w3.org/2000/svg">
<g id="mdi:spotify">
<path id="Vector" d="M26.85 16.35C22.05 13.5 14.025 13.2 9.45 14.625C8.7 14.85 7.95 14.4 7.725 13.725C7.5 12.975 7.95 12.225 8.625 12C13.95 10.425 22.725 10.725 28.275 14.025C28.95 14.4 29.175 15.3 28.8 15.975C28.425 16.5 27.525 16.725 26.85 16.35ZM26.7 20.55C26.325 21.075 25.65 21.3 25.125 20.925C21.075 18.45 14.925 17.7 10.2 19.2C9.6 19.35 8.925 19.05 8.775 18.45C8.625 17.85 8.925 17.175 9.525 17.025C15 15.375 21.75 16.2 26.4 19.05C26.85 19.275 27.075 20.025 26.7 20.55ZM24.9 24.675C24.6 25.125 24.075 25.275 23.625 24.975C20.1 22.8 15.675 22.35 10.425 23.55C9.9 23.7 9.45 23.325 9.3 22.875C9.15 22.35 9.525 21.9 9.975 21.75C15.675 20.475 20.625 21 24.525 23.4C25.05 23.625 25.125 24.225 24.9 24.675ZM18 3C16.0302 3 14.0796 3.38799 12.2597 4.14181C10.4399 4.89563 8.78628 6.00052 7.3934 7.3934C4.58035 10.2064 3 14.0218 3 18C3 21.9782 4.58035 25.7936 7.3934 28.6066C8.78628 29.9995 10.4399 31.1044 12.2597 31.8582C14.0796 32.612 16.0302 33 18 33C21.9782 33 25.7936 31.4196 28.6066 28.6066C31.4196 25.7936 33 21.9782 33 18C33 16.0302 32.612 14.0796 31.8582 12.2597C31.1044 10.4399 29.9995 8.78628 28.6066 7.3934C27.2137 6.00052 25.5601 4.89563 23.7403 4.14181C21.9204 3.38799 19.9698 3 18 3Z" fill="#222222"/>
</g>
</svg>
