<svg width="36" height="36" viewBox="0 0 36 36" fill="none" xmlns="http://www.w3.org/2000/svg">
<g id="simple-icons:applemusic" clip-path="url(#clip0_7956_321)">
<path id="Vector" d="M35.991 9.18593C36.003 8.08046 35.8821 6.97756 35.631 5.90093C35.1555 3.93593 34.038 2.43593 32.361 1.33643C31.506 0.786355 30.5481 0.415851 29.5455 0.24743C28.7702 0.113945 27.986 0.0387347 27.1995 0.0224297C27.1395 0.0179297 27.075 0.00742969 27.0135 0.00292969H8.979C8.752 0.0169297 8.5245 0.0299297 8.2965 0.0419297C7.176 0.10643 6.0615 0.22643 5.007 0.64193C3.003 1.43693 1.557 2.81993 0.7095 4.81193C0.4215 5.48393 0.2715 6.19943 0.165 6.92393C0.0832543 7.51081 0.0331818 8.10166 0.015 8.69393C0.015 8.74193 0.0045 8.78693 0 8.83343V27.1679L0.0405 27.8039C0.1155 29.0264 0.2715 30.2399 0.786 31.3634C1.761 33.4934 3.393 34.8929 5.637 35.5649C6.267 35.7554 6.921 35.8454 7.5765 35.9069C8.409 35.9864 9.2415 35.9969 10.077 35.9969H26.622C27.4093 35.9945 28.1957 35.9444 28.977 35.8469C30.21 35.6879 31.371 35.3219 32.4195 34.6319C33.6629 33.8278 34.6433 32.6768 35.2395 31.3214C35.5185 30.6914 35.679 30.0164 35.7945 29.3354C35.964 28.3229 36.0015 27.2984 36 26.2754C35.997 20.5754 36 14.8829 35.9955 9.18593H35.991ZM26.3565 15.1709V23.7389C26.3565 24.3644 26.2695 24.9794 25.9905 25.5479C25.5555 26.4329 24.8505 26.9909 23.9085 27.2579C23.3845 27.4079 22.8495 27.4944 22.3035 27.5174C20.8785 27.5849 19.644 26.6174 19.389 25.2134C19.2819 24.6072 19.3761 23.9826 19.6573 23.435C19.9384 22.8874 20.391 22.4467 20.946 22.1804C21.4305 21.9404 21.951 21.8054 22.473 21.6944C23.04 21.5714 23.61 21.4649 24.174 21.3344C24.585 21.2399 24.8595 20.9894 24.939 20.5604C24.9584 20.4651 24.9684 20.3682 24.969 20.2709C24.969 17.5479 24.968 14.8264 24.966 12.1064C24.9655 12.0126 24.9523 11.9193 24.927 11.8289C24.867 11.6039 24.702 11.4644 24.471 11.4779C24.231 11.4929 23.994 11.5304 23.7585 11.5769C22.6185 11.8029 21.4785 12.0309 20.3385 12.2609L16.851 12.9659L14.79 13.3829L14.718 13.4024C14.3025 13.5179 14.1525 13.7069 14.133 14.1374C14.131 14.2004 14.131 14.2654 14.133 14.3324C14.13 18.2354 14.133 22.1384 14.1285 26.0399C14.1285 26.6699 14.058 27.2939 13.806 27.8804C13.389 28.8404 12.651 29.4404 11.655 29.7299C11.129 29.8819 10.5915 29.9679 10.0425 29.9879C8.6025 30.0419 7.41 29.0879 7.1625 27.6719C6.9525 26.4539 7.5075 25.1444 8.8935 24.5594C9.429 24.3344 9.9885 24.2114 10.5555 24.0944C10.986 24.0044 11.418 23.9204 11.8455 23.8289C12.4195 23.7029 12.7195 23.3459 12.7455 22.7579V22.5329L12.7485 9.20993C12.7485 9.02543 12.768 8.83493 12.8115 8.65493C12.9165 8.22743 13.221 7.98293 13.6305 7.87793C14.013 7.77893 14.403 7.70993 14.7915 7.63043C15.8915 7.40643 16.9915 7.18443 18.0915 6.96443L21.4965 6.27443L24.5115 5.66993C24.8415 5.60543 25.1745 5.53793 25.506 5.51093C25.971 5.47343 26.2905 5.76593 26.337 6.23393C26.349 6.34393 26.355 6.45543 26.355 6.56843C26.358 9.43443 26.358 12.3004 26.355 15.1664L26.3565 15.1709Z" fill="#222222"/>
</g>
<defs>
<clipPath id="clip0_7956_321">
<rect width="36" height="36" fill="white"/>
</clipPath>
</defs>
</svg>
