<svg width="22" height="16" viewBox="0 0 22 16" fill="none" xmlns="http://www.w3.org/2000/svg">
<path id="Vector" d="M8.8 11.4286L14.509 8L8.8 4.57143V11.4286ZM21.516 2.48C21.659 3.01714 21.758 3.73714 21.824 4.65143C21.901 5.56571 21.934 6.35429 21.934 7.04L22 8C22 10.5029 21.824 12.3429 21.516 13.52C21.241 14.5486 20.603 15.2114 19.613 15.4971C19.096 15.6457 18.15 15.7486 16.698 15.8171C15.268 15.8971 13.959 15.9314 12.749 15.9314L11 16C6.391 16 3.52 15.8171 2.387 15.4971C1.397 15.2114 0.759 14.5486 0.484 13.52C0.341 12.9829 0.242 12.2629 0.176 11.3486C0.0990001 10.4343 0.0659999 9.64571 0.0659999 8.96L0 8C0 5.49714 0.176 3.65714 0.484 2.48C0.759 1.45143 1.397 0.788572 2.387 0.502857C2.904 0.354286 3.85 0.251428 5.302 0.182857C6.732 0.102857 8.041 0.0685714 9.251 0.0685714L11 0C15.609 0 18.48 0.182857 19.613 0.502857C20.603 0.788572 21.241 1.45143 21.516 2.48Z" fill="#FBB582"/>
</svg>
